<?xml version="1.0" encoding="utf-8"?>
<!-- Generator: Adobe Illustrator 27.3.1, SVG Export Plug-In . SVG Version: 6.00 Build 0)  -->
<svg version="1.1" id="Layer_1" xmlns="http://www.w3.org/2000/svg" xmlns:xlink="http://www.w3.org/1999/xlink" x="0px" y="0px"
	 viewBox="0 0 514.66 147.84" style="enable-background:new 0 0 514.66 147.84;" xml:space="preserve">
<style type="text/css">
	.st0{fill:#F8F8F8;}
</style>
<g>
	<path class="st0" d="M427.27,116.6c-4.66,4.56-8.66,8.5-12.68,12.42c-1.35,1.31-2.7,2.59-4.45,3.42
		c-9.05,4.29-16.16-0.07-16.35-10.1c-0.1-4.87,1.43-9.52,2.05-14.41c-5.36,6.61-10.12,13.61-16.39,19.34
		c-3.51,3.21-7.31,5.93-11.57,8.01c-13.44,6.55-26.56-0.95-27.94-15.9c-0.49-5.32-0.3-10.59,1.46-16.5
		c-2.67,1.07-3.2,2.77-4.13,4.05c-6.52,9.03-11.47,19.15-19.15,27.37c-0.64,0.69-1.22,1.45-1.92,2.07
		c-2.71,2.38-5.74,3.47-9.02,1.31c-3.18-2.09-3.9-5.25-2.7-8.72c1.96-5.65,4.56-11.02,7.88-16.03c4.84-7.31,9.68-14.63,14.51-21.93
		c-1.49-1.74-3.15-1.08-4.59-0.98c-3.29,0.23-6.55,0.98-9.83,0.99c-8.66,0.01-14.1,4.3-19.05,11.28
		c-7.9,11.12-16.83,21.5-23.74,33.35c-2.07,3.56-5.34,4.98-9.24,3.82c-3.81-1.13-5.24-4.29-5.23-8.06c0-2.46,0.26-4.92,0.45-8.21
		c-4,2.64-7.41,5.08-11,7.23c-10.68,6.39-21.67,12.04-34.09,14.37c-15.79,2.97-27.34-8.55-24.9-24.6
		c1.77-11.71,7.76-21.5,13.65-31.3c8.37-13.9,18.71-26.35,29.6-38.34c12.48-13.73,25.64-26.76,40.6-37.8
		c8.12-5.99,16.75-11.26,27.05-12.57c11.97-1.53,19.4,6.54,17.82,18.54c-1.61,12.28-8.06,21.95-15.81,30.99
		c-2.35,2.74-4.94,5.27-7.56,7.76c-3.73,3.55-7.28,3.74-10.39,0.73c-2.92-2.82-2.97-6.93,0.38-10.5
		c4.75-5.05,9.28-10.24,12.98-16.12c2.11-3.35,3.85-6.84,4.43-10.81c0.46-3.14-0.42-4.53-3.83-3.33c-6.33,2.22-11.7,6.01-16.96,10
		c-14.22,10.8-26.21,23.88-37.94,37.2c-12.06,13.7-23.07,28.18-31.5,44.47c-2.25,4.34-4.36,8.7-4.7,13.69
		c-0.27,3.86,1.09,5.6,5.25,4.71c9.2-1.95,17.5-6.12,25.58-10.6c9.75-5.41,19.17-11.4,28.71-17.17c4.04-2.44,7.97-5.02,11.1-8.65
		c1.02-1.18,2.22-2.71,3.82-2.5c4.32,0.55,6.08-2.53,8.14-5.23c14.21-18.58,28.34-37.23,42.64-55.75
		c5.18-6.7,10.2-13.56,16.15-19.63c3.69-3.76,7.66-4.51,10.83-2.08c3.08,2.35,3.54,6.79,0.59,11.03
		c-12.38,17.79-24.83,35.52-38.01,52.73c-1.21,1.58-2.73,2.99-3.3,5.3c2.23,0.82,4.38,0.38,6.48,0.02c3.33-0.57,6.67-0.61,9.72,0.84
		c3.56,1.7,5.54,0.72,7.66-2.52c11.35-17.35,22.92-34.54,34.43-51.78c2.7-4.05,5.4-8.09,8.18-12.08c2.21-3.17,4.96-5.58,9.1-3.56
		c4.12,2.01,3.98,5.73,2.85,9.38c-1.91,6.17-5.59,11.53-7.98,17.71c4.27-4.15,8.53-8.32,12.82-12.45c3.74-3.61,7.66-6.94,12.56-8.98
		c12.4-5.17,18.04,3.32,18.91,11.66c0.55,5.24,0.32,10.53-0.7,17.01c3.41-5.81,6.17-10.51,8.93-15.21c1.76-2.99,3.69-5.84,6.39-8.1
		c2.3-1.92,4.82-2.34,7.39-0.71c2.78,1.77,4.28,4.4,3.12,7.64c-1.05,2.93-2.66,5.67-4.12,8.45c-11.06,21.15-22.44,42.14-31.78,64.14
		c-0.83,1.95-1.52,3.97-1.79,6.19c6.54-6.91,11.17-15.02,15.65-23.2c3.24-5.92,6.16-12.02,9.16-18.07c1.29-2.61,2.99-4.77,5.62-6.13
		c5.58-2.87,11.88,0.63,12.39,6.89c0.33,4-0.71,7.79-1.81,11.57c-2.7,9.3-5.41,18.59-7.27,28.37c2.53-3.5,5.14-6.95,7.57-10.52
		c13.44-19.76,25.56-40.31,36.73-61.43c1.46-2.77,2.98-5.56,4.86-8.05c2.57-3.41,6.22-4.38,10.07-2.56
		c3.68,1.74,5.14,5.08,4.32,9.04c-0.5,2.43-1.41,4.84-2.53,7.06c-15.2,29.88-32.43,58.51-53.36,84.78
		c-4.68,5.87-9.5,11.69-15.8,16.07c-3.3,2.29-6.51,2.97-10.14,1.27c-3.78-1.77-5.76-4.88-5.84-8.96
		C426.69,125,427.05,121.27,427.27,116.6z M357.05,113.69c0.4,2.09-0.57,4.64,1.46,5.8c2.29,1.32,4.18-0.8,5.8-2.06
		c4.34-3.37,8.16-7.35,11.48-11.73c12.35-16.32,22.4-34.02,31.03-52.54c1.78-3.82,2.87-7.97,4.6-11.82c1.69-3.76-1.4-5.77-3.14-7.54
		c-1.35-1.38-2.93,1.54-4.07,2.78c-14.46,15.75-27.52,32.57-38,51.25C361.68,95.9,357.93,104.38,357.05,113.69z"/>
	<path class="st0" d="M117.5,34.35c-4.04,4.5-8.06,8.76-11.85,13.23c-19.56,23.07-35.8,48.36-50.02,75
		c-1.48,2.78-3.08,5.54-4.95,8.07c-2.51,3.39-6.05,4.74-10.15,3.43c-4.17-1.34-5.83-4.66-6.04-8.83c-0.24-4.76,1.23-9.2,2.56-13.66
		c4.84-16.25,10.76-32.13,15.66-48.6c-0.85,1.22-1.76,2.4-2.53,3.67c-12.4,20.32-23.61,41.3-33.93,62.74
		c-1.54,3.21-3.59,5.96-6.15,8.39c-2.04,1.94-4.31,2.47-6.83,1.1c-2.45-1.34-3.62-3.56-3.17-6.24c0.47-2.77,1.07-5.6,2.2-8.15
		C18.75,87.37,39.03,52.54,64.87,21.08c1.71-2.08,3.59-3.94,5.85-5.38c4.56-2.91,9.33-1.14,11.16,3.98
		c1.31,3.68,0.68,7.27-0.46,10.77c-3.19,9.8-6.53,19.56-9.79,29.34c-0.56,1.69-1.64,3.25-1.31,5.65c2.46-1.38,3.45-3.71,4.87-5.54
		c12.44-16.03,24.74-32.18,40.02-45.72c2.99-2.65,5.93-5.36,9.74-6.85c9.62-3.76,16.41,1.14,15.64,11.44
		c-0.48,6.53-2.81,12.66-4.89,18.78c-10.78,31.63-25.91,61.22-42.74,89.99c-3.7,6.33-9.49,11.13-12.68,17.85
		c-1.14,2.39-3.45,3.12-5.95,1.81c-2.78-1.44-3.3-3.72-2.67-6.74c3.04-14.69,9.64-27.82,16.91-40.78
		c11.24-20.04,20.87-40.87,29.01-62.38C117.86,36.56,118.42,35.83,117.5,34.35z"/>
	<path class="st0" d="M149.6,118.96c0.18,6.45-4.49,12.14-9.99,12.17c-4.79,0.03-8.96-3.81-8.94-8.23
		c0.03-5.08,4.55-9.23,10.31-9.47C146.01,113.23,149.5,115.46,149.6,118.96z"/>
</g>
</svg>
